<?xml version="1.0" encoding="UTF-8"?>
<svg version="1.1" xmlns="http://www.w3.org/2000/svg" width="2160" height="2160">
<path d="M0 0 C712.8 0 1425.6 0 2160 0 C2160 712.8 2160 1425.6 2160 2160 C1447.2 2160 734.4 2160 0 2160 C0 1447.2 0 734.4 0 0 Z " fill="#1B1B1B" transform="translate(0,0)"/>
<path d="M0 0 C4.37922967 1.58109955 6.82444767 5.02183341 9.6875 8.5 C10.75680629 9.77428253 11.82712642 11.04771496 12.8984375 12.3203125 C13.42405273 12.94711914 13.94966797 13.57392578 14.49121094 14.21972656 C16.55013001 16.6491178 18.67377151 19.01578404 20.8125 21.375 C25.53845816 26.5904324 30.18413016 31.86642073 34.75 37.22265625 C39.49079323 42.78122479 44.24086217 48.30937974 49.1875 53.6875 C52.37736844 57.16136309 55.42048894 60.69910025 58.375 64.375 C62.24218863 69.1714071 66.34980716 73.6704146 70.55810547 78.16357422 C74.4598253 82.35311567 78.07317487 86.72163825 81.65625 91.1875 C84.33208171 94.39849805 87.14358276 97.45029137 90 100.5 C94.43832674 105.23866464 98.5914225 110.12119326 102.65625 115.1875 C105.33208278 118.39849934 108.14359707 121.45027636 111 124.5 C115.45550447 129.25743042 119.6313357 134.15818292 123.71484375 139.2421875 C127.14347592 143.37998974 130.79892913 147.29671107 134.44921875 151.23828125 C138.6621597 155.79961242 142.71432894 160.49022292 146.7421875 165.21484375 C147.76544735 166.41421409 148.78889037 167.61342817 149.8125 168.8125 C150.32973633 169.41860107 150.84697266 170.02470215 151.37988281 170.64916992 C154.5848938 174.39051541 157.85201503 178.0610693 161.1875 181.6875 C164.37736844 185.16136309 167.42048894 188.69910025 170.375 192.375 C174.24218863 197.1714071 178.34980716 201.6704146 182.55810547 206.16357422 C186.4598253 210.35311567 190.07317487 214.72163825 193.65625 219.1875 C196.33208278 222.39849934 199.14359707 225.45027636 202 228.5 C206.45550447 233.25743042 210.6313357 238.15818292 214.71484375 243.2421875 C218.14347592 247.37998974 221.79892913 251.29671107 225.44921875 255.23828125 C229.6621597 259.79961242 233.71432894 264.49022292 237.7421875 269.21484375 C238.76544735 270.41421409 239.78889037 271.61342817 240.8125 272.8125 C241.32973633 273.41860107 241.84697266 274.02470215 242.37988281 274.64916992 C245.5848938 278.39051541 248.85201503 282.0610693 252.1875 285.6875 C256.3126822 290.17803651 260.18859679 294.82482882 263.9921875 299.58984375 C265.96048736 302.03878237 265.96048736 302.03878237 268.2578125 304.19140625 C270 306 270 306 270 308 C255.94410476 308.25751221 241.88857763 308.45046904 227.83080387 308.56993389 C221.30262871 308.62728025 214.77604086 308.70502525 208.2487793 308.82983398 C201.94627291 308.94958734 195.64529042 309.01517394 189.34173393 309.04364967 C186.94022062 309.06393441 184.53878837 309.10354914 182.1379261 309.16303062 C162.29810864 309.63489668 162.29810864 309.63489668 157.59262085 305.60977173 C155.30569533 302.83465947 153.66288859 300.17510155 152 297 C150.27642893 294.91401419 150.27642893 294.91401419 148.59375 293.25 C148.08239502 292.71028564 147.57104004 292.17057129 147.04418945 291.61450195 C146.27981567 290.81532349 146.27981567 290.81532349 145.5 290 C140.83232259 285.04996781 136.44061633 279.96776441 132.18359375 274.65625 C129.03392276 270.82480765 125.68212733 267.191427 122.328125 263.5390625 C118.19131313 259.02743881 114.19389177 254.40014509 110.21875 249.74609375 C104.88210504 243.49879352 99.51432798 237.29577811 93.99609375 231.20703125 C89.92490746 226.70562175 85.9599998 222.1119745 81.9921875 217.51953125 C80.86989694 216.22126315 79.74749799 214.92308875 78.625 213.625 C77.77518555 212.64188843 77.77518555 212.64188843 76.90820312 211.63891602 C73.73002323 207.97020289 70.51815187 204.33923346 67.25 200.75 C64.2992512 197.49989987 61.49702373 194.17382667 58.75 190.75 C54.65177478 185.67737158 50.26890849 180.94092006 45.80224609 176.19677734 C41.73862191 171.85741148 37.95837434 167.35276795 34.2421875 162.7109375 C31.76093291 159.71095373 29.15132395 156.84849592 26.5 154 C22.2230204 149.40363316 18.21878189 144.65119452 14.28125 139.7578125 C10.35926166 135.01650467 6.18127719 130.51298603 2 126 C-1.67670584 127.51052023 -3.71874462 129.6488615 -6.3125 132.625 C-7.10527344 133.52863281 -7.89804688 134.43226563 -8.71484375 135.36328125 C-9.84599609 136.66845703 -9.84599609 136.66845703 -11 138 C-11.57878906 138.65355469 -12.15757812 139.30710937 -12.75390625 139.98046875 C-15.85641568 143.4866782 -18.88735997 147.04905522 -21.89990234 150.6328125 C-26.73297189 156.37970474 -31.66752953 161.99525949 -36.7421875 167.53125 C-40.85070653 172.02360991 -44.82771549 176.62515244 -48.78125 181.25390625 C-49.8124583 182.46097313 -50.84370948 183.66800337 -51.875 184.875 C-52.65460083 185.78789795 -52.65460083 185.78789795 -53.44995117 186.71923828 C-56.47905595 190.25642957 -59.55156303 193.74401054 -62.6875 197.1875 C-65.66024023 200.45804605 -68.48485914 203.80235614 -71.25 207.25 C-75.90942496 213.01297298 -80.93532652 218.38580153 -86 223.7890625 C-90.80869935 228.92051322 -95.3637339 234.24279882 -99.890625 239.62329102 C-100.35984375 240.18072998 -100.8290625 240.73816895 -101.3125 241.3125 C-102.01826172 242.15155884 -102.01826172 242.15155884 -102.73828125 243.00756836 C-105.79136475 246.62007101 -108.92221994 250.1432842 -112.125 253.625 C-115.33662257 257.11940695 -118.40243296 260.67533022 -121.375 264.375 C-125.24283546 269.17220935 -129.35109495 273.67204207 -133.56030273 278.16577148 C-136.65750846 281.49119755 -139.59607067 284.88701675 -142.4375 288.4375 C-143.12636795 289.2603952 -143.8152359 290.08329041 -144.52497864 290.93112183 C-146.28928534 293.11875641 -147.85005439 295.24201666 -149.41410828 297.55764771 C-153.72495483 303.48459872 -157.84804794 308.0202874 -165.33657837 309.22967529 C-171.8585476 309.79746215 -178.36007106 309.57708707 -184.89453125 309.3671875 C-187.29727884 309.34103538 -189.70010173 309.32112598 -192.10295105 309.30715942 C-198.38988869 309.25401595 -204.67220837 309.11678852 -210.95733643 308.96130371 C-217.38563573 308.81739644 -223.81469059 308.75400145 -230.24414062 308.68359375 C-242.83138343 308.53400221 -255.41544477 308.2981988 -268 308 C-266.26383071 304.30752161 -264.10549826 301.7440257 -261.3125 298.75 C-260.39921125 297.76220697 -259.48645231 296.77392383 -258.57421875 295.78515625 C-257.72472656 294.86605469 -256.87523437 293.94695312 -256 293 C-252.69639186 289.30773208 -249.46797174 285.5514914 -246.25390625 281.78125 C-245.2319362 280.58319225 -244.20979569 279.3852799 -243.1875 278.1875 C-242.41176636 277.27846924 -242.41176636 277.27846924 -241.62036133 276.35107422 C-238.4152347 272.60967738 -235.14806271 268.93901522 -231.8125 265.3125 C-228.60354956 261.81740111 -225.53934163 258.2571616 -222.5625 254.5625 C-218.90428985 250.02683557 -215.05257035 245.7429883 -211.08618164 241.48071289 C-208.09573 238.24806025 -205.26220993 234.93303234 -202.5 231.5 C-198.38347389 226.38754015 -194.0077116 221.57423446 -189.55078125 216.76171875 C-185.34901591 212.21248736 -181.30557487 207.53632916 -177.29296875 202.8203125 C-172.38874161 197.06321111 -167.4606704 191.35360496 -162.3125 185.8125 C-158.10970691 181.28801899 -154.18310786 176.59186263 -150.3125 171.78125 C-147.35889523 168.22894156 -144.23217677 164.86137228 -141.0859375 161.48046875 C-138.09558642 158.24788253 -135.26213671 154.93294134 -132.5 151.5 C-128.38347389 146.38754015 -124.0077116 141.57423446 -119.55078125 136.76171875 C-115.32666728 132.18829061 -111.26567752 127.48329319 -107.22265625 122.75 C-101.88975003 116.50809505 -96.52848804 110.30788448 -91.01171875 104.2265625 C-88.57550648 101.53017222 -86.18940787 98.7926602 -83.8046875 96.05078125 C-81.77041859 93.73911203 -79.6977769 91.4646857 -77.625 89.1875 C-74.53363199 85.76770672 -71.57540968 82.28041476 -68.6875 78.6875 C-64.79744069 73.87414563 -60.67128166 69.3523855 -56.44433594 64.83886719 C-52.52121407 60.62606859 -48.88103586 56.23604648 -45.27734375 51.74609375 C-42.33922549 48.20321701 -39.21768822 44.84558228 -36.08349609 41.47802734 C-33.11269934 38.26683127 -30.30031679 34.97363159 -27.5625 31.5625 C-23.20840109 26.15309884 -18.5374854 21.09425682 -13.8046875 16.01953125 C-8.9904211 10.85540022 -4.34764971 5.56499163 0 0 Z " fill="#E3E3E3" transform="translate(1079,502)"/>
<path d="M0 0 C229.02 0 458.04 0 694 0 C694 25.41 694 50.82 694 77 C464.98 77 235.96 77 0 77 C0 51.59 0 26.18 0 0 Z " fill="#E4E4E4" transform="translate(733,887)"/>
<path d="M0 0 C178.2 0 356.4 0 540 0 C540 25.74 540 51.48 540 78 C361.8 78 183.6 78 0 78 C0 52.26 0 26.52 0 0 Z " fill="#E2E2E2" transform="translate(810,1041)"/>
<path d="M0 0 C0.30219894 10.89186537 0.53268316 21.78272246 0.67355824 32.67793751 C0.74120104 37.73822151 0.83281007 42.79562317 0.98071289 47.85424805 C1.1227541 52.74340938 1.19984874 57.62981341 1.23340416 62.52087975 C1.25728951 64.37946671 1.30393997 66.2379149 1.37449074 68.09531593 C1.9319347 83.39000834 1.9319347 83.39000834 -2.79824829 88.50302124 C-5.96098384 91.38733769 -9.42219727 93.66182665 -13 96 C-14.75656984 97.48909831 -16.49169442 99.00455429 -18.1875 100.5625 C-18.98542969 101.29082031 -19.78335938 102.01914063 -20.60546875 102.76953125 C-48.48803611 128.74171064 -68.14311389 164.17585164 -74 202 C-74.16628906 203.01296143 -74.33257813 204.02592285 -74.50390625 205.06958008 C-81.44320476 249.5895171 -69.98243532 296.7952117 -43.58325195 333.33374023 C-37.86171185 341.01359202 -31.65612562 348.11887859 -25 355 C-24.52594727 355.49983398 -24.05189453 355.99966797 -23.56347656 356.51464844 C-22.09459226 358.06203023 -20.61225409 359.59528115 -19.125 361.125 C-18.26132812 362.01445313 -17.39765625 362.90390625 -16.5078125 363.8203125 C-14.39423172 365.94421788 -12.48360972 367.29750509 -9.85832214 368.80999756 C-5.52626713 371.38694581 -1.06936308 374.07809742 0.73226929 379.00083542 C1.84065979 384.80902159 1.49213054 390.69278339 1.26953125 396.5703125 C1.24524867 398.46167652 1.22676061 400.35312297 1.21379089 402.24459839 C1.16442657 407.19521543 1.03700148 412.14078031 0.89263916 417.0894165 C0.75903854 422.15006154 0.70015099 427.21153289 0.63476562 432.2734375 C0.49583171 442.18449757 0.27432055 452.09182688 0 462 C-25.76289219 453.67622024 -49.74942274 435.33522406 -69.5078125 417.26953125 C-71.13205496 415.79040137 -72.77213216 414.32841881 -74.4296875 412.88671875 C-86.96341944 401.93471976 -97.1574373 389.36700434 -107 376 C-107.67933594 375.08347656 -108.35867188 374.16695312 -109.05859375 373.22265625 C-114.18100602 366.11279535 -118.61696767 358.57931607 -123 351 C-123.66 349.87207031 -124.32 348.74414062 -125 347.58203125 C-133.66109514 332.1282627 -140.39536693 315.10292283 -145 298 C-145.50080078 296.26363281 -145.50080078 296.26363281 -146.01171875 294.4921875 C-163.0606694 233.77510674 -154.24015106 166.54979565 -123.6953125 111.57421875 C-105.89858587 80.77113148 -82.05782025 51.85200549 -53 31 C-51.8279599 30.10387076 -50.65878498 29.20398439 -49.4921875 28.30078125 C-12.56673575 0 -12.56673575 0 0 0 Z " fill="#E1E1E1" transform="translate(964,1196)"/>
<path d="M0 0 C5.34597324 2.07054554 10.58699562 4.12222451 15.5859375 6.953125 C16.53033691 7.48574951 17.47473633 8.01837402 18.44775391 8.56713867 C19.41374512 9.12248291 20.37973633 9.67782715 21.375 10.25 C22.38868652 10.82919189 23.40237305 11.40838379 24.44677734 12.00512695 C36.29711243 18.82749878 47.34530899 26.43231033 58 35 C58.79929932 35.64050293 58.79929932 35.64050293 59.61474609 36.29394531 C74.70078902 48.50319975 89.39608494 62.40652672 101 78 C101.86034837 79.12004424 102.72104995 80.23981722 103.58203125 81.359375 C122.25112826 105.93178288 137.40240493 133.98949949 145 164 C145.32484375 165.21300781 145.6496875 166.42601562 145.984375 167.67578125 C148.00593473 175.33125974 149.67748385 183.04048005 151.1875 190.8125 C151.43790039 192.08299194 151.43790039 192.08299194 151.69335938 193.37915039 C158.37324472 228.78185546 154.25227995 266.78441033 144 301 C143.61569824 302.30710937 143.61569824 302.30710937 143.22363281 303.640625 C136.97356315 324.59443446 127.85273224 344.61979878 116 363 C115.50242187 363.77182617 115.00484375 364.54365234 114.4921875 365.33886719 C108.10671716 375.14119327 101.3501534 384.38601743 93.55859375 393.1171875 C91.90237588 394.98327725 90.3052578 396.90426762 88.78515625 398.8828125 C88.19605469 399.58148437 87.60695313 400.28015625 87 401 C86.34 401 85.68 401 85 401 C84.74476562 401.58136719 84.48953125 402.16273438 84.2265625 402.76171875 C80.44812907 409.6567581 72.9313605 414.96197926 67 420 C66.15050781 420.73863281 65.30101562 421.47726562 64.42578125 422.23828125 C48.24341652 436.08049501 30.47428864 447.14229892 11.6875 457.0625 C10.29772949 457.79738647 10.29772949 457.79738647 8.87988281 458.54711914 C8.01588867 458.99692139 7.15189453 459.44672363 6.26171875 459.91015625 C5.10095825 460.51549194 5.10095825 460.51549194 3.91674805 461.13305664 C2 462 2 462 0 462 C-0.25543267 451.07336852 -0.4505995 440.14745259 -0.56993389 429.21843815 C-0.6272255 424.14284008 -0.70485688 419.06929148 -0.82983398 413.99487305 C-0.94980305 409.09283431 -1.01521508 404.19275969 -1.04364967 399.28936577 C-1.06389762 397.42367063 -1.10344252 395.55807719 -1.16303062 393.69322395 C-1.61075137 379.09413376 -1.61075137 379.09413376 2.34848022 373.94674683 C5.12680165 371.66088205 7.91740839 369.84405049 11 368 C12.67580945 366.59756059 14.32658383 365.16402386 15.9375 363.6875 C16.75089844 362.94371094 17.56429688 362.19992187 18.40234375 361.43359375 C52.64096651 329.35741032 74.47439247 285.77961877 76.37890625 238.44140625 C77.53565008 188.41996801 59.40710838 142.99092145 24.98828125 106.80078125 C19.75532662 101.40953142 14.31782899 96.39874495 8.3515625 91.81640625 C7.18753906 90.91728516 7.18753906 90.91728516 6 90 C4.97554779 89.31017532 3.95109558 88.62035065 2.89559937 87.90962219 C0.11810375 85.5679249 0.00677678 85.03595551 -0.7215271 81.17179871 C-0.73882107 79.65778432 -0.72318094 78.1431684 -0.68115234 76.62963867 C-0.6820285 75.79985504 -0.68290466 74.97007141 -0.68380737 74.11514282 C-0.67963852 71.38178226 -0.63302275 68.65089863 -0.5859375 65.91796875 C-0.57474279 64.01940756 -0.5662039 62.120829 -0.56021118 60.22224426 C-0.53733443 55.23230894 -0.47842114 50.24342643 -0.4119873 45.25390625 C-0.35053987 40.15965009 -0.32319091 35.0652233 -0.29296875 29.97070312 C-0.2286768 19.98000692 -0.12631122 9.99009111 0 0 Z " fill="#E1E1E1" transform="translate(1196,1196)"/>
<path d="M0 0 C25.74 0 51.48 0 78 0 C78 102.3 78 204.6 78 310 C52.26 310 26.52 310 0 310 C0 207.7 0 105.4 0 0 Z " fill="#DFDFDF" transform="translate(1041,1195)"/>
<path d="M0 0 C8.25889231 6.10995408 14.28040764 12.99662985 17 23 C18.34240524 35.05355715 17.27536414 46.18426519 10.1875 56.3125 C3.31850442 64.66438048 -5.23046203 69.92241197 -16 72 C-26.56118956 72.95725492 -35.24255678 71.05046787 -43.8125 64.6875 C-51.64835394 58.06683197 -57.92880377 50.53116845 -59.25878906 39.93896484 C-60.16674087 27.20765315 -58.13975101 17.05066321 -50 7 C-37.15399511 -6.48431569 -16.16126803 -10.11549527 0 0 Z " fill="#D9D9D9" transform="translate(1101,1587)"/>
<path d="M0 0 C0.99 0.33 1.98 0.66 3 1 C3 1.66 3 2.32 3 3 C-32.31 3 -67.62 3 -104 3 C-104 2.67 -104 2.34 -104 2 C-102.71182877 1.98969254 -101.42365753 1.97938507 -100.09645081 1.96876526 C-87.98532537 1.87121426 -75.87425341 1.76849805 -63.76321507 1.66066074 C-57.53609086 1.60538186 -51.308962 1.55195407 -45.08178711 1.50268555 C-39.07768959 1.45511506 -33.07365122 1.40277518 -27.06962395 1.34705925 C-24.77340089 1.32660243 -22.47716159 1.307895 -20.18091011 1.29092598 C-16.97674786 1.26695535 -13.7726986 1.23689113 -10.56860352 1.20532227 C-9.60907272 1.1995668 -8.64954193 1.19381134 -7.66093445 1.18788147 C-6.35888565 1.17319824 -6.35888565 1.17319824 -5.03053284 1.15821838 C-4.27189721 1.15176583 -3.51326159 1.14531328 -2.731637 1.1386652 C-0.96977847 1.18591441 -0.96977847 1.18591441 0 0 Z " fill="#D0D0D0" transform="translate(1346,807)"/>
<path d="M0 0 C0.66 0.66 1.32 1.32 2 2 C1.38125 2.598125 0.7625 3.19625 0.125 3.8125 C-2.13676954 6.00811144 -2.13676954 6.00811144 -4 9 C-4.66 8.67 -5.32 8.34 -6 8 C-4.55746343 4.63408134 -2.66735273 2.48952921 0 0 Z M-8 9 C-7.34 9.66 -6.68 10.32 -6 11 C-7.28965176 12.37562854 -8.62689293 13.70766393 -10 15 C-10.66 15 -11.32 15 -12 15 C-10.84826645 12.53199953 -9.95216435 10.95216435 -8 9 Z M-13 15 C-13 18 -13 18 -15 20.1875 C-15.66 20.785625 -16.32 21.38375 -17 22 C-17.66 21.67 -18.32 21.34 -19 21 C-17.02 19.02 -15.04 17.04 -13 15 Z " fill="#353435" transform="translate(1010,706)"/>
<path d="M0 0 C0 3 0 3 0 3 Z M-2 3 C-1.34 3.66 -0.68 4.32 0 5 C-0.7425 5.721875 -1.485 6.44375 -2.25 7.1875 C-4.69701496 9.69012893 -6.82562458 12.26449544 -9 15 C-10.31494512 16.35147138 -11.64264858 17.69112542 -13 19 C-13.33 18.01 -13.66 17.02 -14 16 C-10.04 11.71 -6.08 7.42 -2 3 Z " fill="#414141" transform="translate(1040,671)"/>
<path d="M0 0 C0.66 0.66 1.32 1.32 2 2 C-1.16548033 5.88901869 -4.40365256 9.50640535 -8 13 C-8.99 12.67 -9.98 12.34 -11 12 C-7.37 8.04 -3.74 4.08 0 0 Z " fill="#343434" transform="translate(946,779)"/>
<path d="M0 0 C0.33 0 0.66 0 1 0 C1.20086443 3.71599191 1.1519437 4.77208445 -1 8 C-2.12271865 10.64169095 -3.09207506 13.27622517 -4 16 C-4.99 15.67 -5.98 15.34 -7 15 C-3.535 7.575 -3.535 7.575 0 0 Z " fill="#373737" transform="translate(1328,1527)"/>
<path d="M0 0 C0.33 0.99 0.66 1.98 1 3 C-0.62339805 4.70884005 -2.29319053 6.37446717 -4 8 C-4.66 8 -5.32 8 -6 8 C-6.66 9.32 -7.32 10.64 -8 12 C-8.99 11.67 -9.98 11.34 -11 11 C-7.37 7.37 -3.74 3.74 0 0 Z " fill="#353535" transform="translate(943,1298)"/>
<path d="M0 0 C0.99 0.33 1.98 0.66 3 1 C2.690625 1.804375 2.38125 2.60875 2.0625 3.4375 C1.2041119 6.31562481 0.77101513 8.6158264 0.5 11.5625 C0.1782632 15.0255579 -0.46905491 17.83604681 -2 21 C-2.91145054 18.02977779 -3.01801972 15.93514414 -2.44140625 12.890625 C-2.30283203 12.13652344 -2.16425781 11.38242188 -2.02148438 10.60546875 C-1.87001953 9.82816406 -1.71855469 9.05085938 -1.5625 8.25 C-1.41490234 7.45722656 -1.26730469 6.66445312 -1.11523438 5.84765625 C-0.75096034 3.89702754 -0.37647488 1.9483107 0 0 Z " fill="#535353" transform="translate(1347,1460)"/>
<path d="M0 0 C0.66 0.33 1.32 0.66 2 1 C1.67 1.66 1.34 2.32 1 3 C0.34 3 -0.32 3 -1 3 C-1.12375 3.78375 -1.2475 4.5675 -1.375 5.375 C-2 8 -2 8 -4 10 C-5.32 9.67 -6.64 9.34 -8 9 C-5.36 6.03 -2.72 3.06 0 0 Z " fill="#D7D7D7" transform="translate(948,652)"/>
<path d="M0 0 C0.66 0.33 1.32 0.66 2 1 C1.43628586 4.26954202 0.50037734 5.82575883 -2 8 C-3.32 7.34 -4.64 6.68 -6 6 C-4.02 4.02 -2.04 2.04 0 0 Z " fill="#D6D6D6" transform="translate(1061,523)"/>
<path d="M0 0 C0.33 0.99 0.66 1.98 1 3 C-0.58133449 6.16266898 -2.38114512 8.63055987 -5 11 C-5.66 10.01 -6.32 9.02 -7 8 C-4.69 5.36 -2.38 2.72 0 0 Z " fill="#D0D0D0" transform="translate(915,689)"/>
<path d="M0 0 C1.05147939 3.41730801 1.36370888 6.43565297 1 10 C-1 12.875 -1 12.875 -3 15 C-2.44854729 9.76119922 -1.57077907 5.02649303 0 0 Z " fill="#505050" transform="translate(894,1376)"/>
<path d="M0 0 C0.33 0.66 0.66 1.32 1 2 C-0.80831392 5.61662784 -3.05278838 8.25604436 -6 11 C-6.66 10.67 -7.32 10.34 -8 10 C-5.36 6.7 -2.72 3.4 0 0 Z " fill="#CCCCCC" transform="translate(866,745)"/>
<path d="M0 0 C0 0.66 0 1.32 0 2 C-5.61 1.67 -11.22 1.34 -17 1 C-17 0.67 -17 0.34 -17 0 C-14.9174133 -0.19561869 -12.83388144 -0.38119313 -10.75 -0.5625 C-9.58984375 -0.66691406 -8.4296875 -0.77132813 -7.234375 -0.87890625 C-4.48128523 -0.98198087 -2.580018 -0.86213473 0 0 Z " fill="#525252" transform="translate(1092,1581)"/>
<path d="M0 0 C0.66 0.66 1.32 1.32 2 2 C0.35 4.64 -1.3 7.28 -3 10 C-3.99 9.34 -4.98 8.68 -6 8 C-5.34 8 -4.68 8 -4 8 C-3.71125 7.05125 -3.4225 6.1025 -3.125 5.125 C-2 2 -2 2 0 0 Z " fill="#3A3A3A" transform="translate(1246,1516)"/>
<path d="M0 0 C-0.25 2.375 -0.25 2.375 -1 5 C-3.0625 6.3125 -3.0625 6.3125 -5 7 C-5.33 5.68 -5.66 4.36 -6 3 C-2.25 0 -2.25 0 0 0 Z " fill="#2D2D2D" transform="translate(1247,1629)"/>
<path d="M0 0 C0.66 0.33 1.32 0.66 2 1 C-0.19909405 3.19909405 -2.56070254 5.07423885 -5 7 C-5.66 5.68 -6.32 4.36 -7 3 C-4.69631264 1.93347808 -2.35981813 0.93578995 0 0 Z " fill="#313131" transform="translate(1099,1653)"/>
<path d="M0 0 C0.33 0.66 0.66 1.32 1 2 C-0.98 4.31 -2.96 6.62 -5 9 C-5.66 8.67 -6.32 8.34 -7 8 C-4.69 5.36 -2.38 2.72 0 0 Z " fill="#CDCDCD" transform="translate(1024,565)"/>
<path d="M0 0 C0.33 0.99 0.66 1.98 1 3 C-0.65 4.65 -2.3 6.3 -4 8 C-4.66 7.34 -5.32 6.68 -6 6 C-4.02 4.02 -2.04 2.04 0 0 Z " fill="#3B3B3B" transform="translate(974,747)"/>
<path d="M0 0 C0.99 0.33 1.98 0.66 3 1 C-1.75 5.875 -1.75 5.875 -4 7 C-3.43628586 3.73045798 -2.50037734 2.17424117 0 0 Z " fill="#D1D1D1" transform="translate(1045,541)"/>
<path d="M0 0 C0.99 0.66 1.98 1.32 3 2 C2.34 2 1.68 2 1 2 C0.731875 2.639375 0.46375 3.27875 0.1875 3.9375 C-1 6 -1 6 -4 7 C-2.79618552 4.50638429 -1.54571278 2.31856917 0 0 Z " fill="#383838" transform="translate(1305,1568)"/>
<path d="M0 0 C0.66 0 1.32 0 2 0 C3.25664978 2.90600261 4 4.79604584 4 8 C3.01 7.67 2.02 7.34 1 7 C0.67 4.69 0.34 2.38 0 0 Z " fill="#D1D1D1" transform="translate(896,1486)"/>
<path d="M0 0 C1.98 1.65 3.96 3.3 6 5 C5.34 5.66 4.68 6.32 4 7 C2.35 5.35 0.7 3.7 -1 2 C-0.67 1.34 -0.34 0.68 0 0 Z " fill="#D5D5D5" transform="translate(1154,587)"/>
<path d="M0 0 C0.66 0.99 1.32 1.98 2 3 C0.35 4.32 -1.3 5.64 -3 7 C-3.33 6.01 -3.66 5.02 -4 4 C-2.68 2.68 -1.36 1.36 0 0 Z " fill="#CFCFCF" transform="translate(1052,533)"/>
<path d="M0 0 C0.33 0.99 0.66 1.98 1 3 C-0.9375 5.6875 -0.9375 5.6875 -3 8 C-3.99 7.67 -4.98 7.34 -6 7 C-4.02 4.69 -2.04 2.38 0 0 Z " fill="#3C3C3C" transform="translate(941,784)"/>
<path d="M0 0 C0.66 0.66 1.32 1.32 2 2 C0 4 -2 6 -4 8 C-4.33 7.01 -4.66 6.02 -5 5 C-3.35 3.35 -1.7 1.7 0 0 Z " fill="#363636" transform="translate(1031,682)"/>
<path d="M0 0 C1.65 0.99 3.3 1.98 5 3 C4.34 4.32 3.68 5.64 3 7 C1.68 5.35 0.36 3.7 -1 2 C-0.67 1.34 -0.34 0.68 0 0 Z " fill="#373737" transform="translate(1146,574)"/>
</svg>
